<svg width="16" height="18" fill="none" xmlns="http://www.w3.org/2000/svg"><path d="M15.031 4.781a2.1 2.1 0 01.281.362h-4.74V.402c.147.094.267.187.361.281l4.098 4.098zM10.25 6.43h5.464v10.607a.93.93 0 01-.281.683.93.93 0 01-.683.281H1.25a.93.93 0 01-.683-.281.93.93 0 01-.281-.683V.964A.93.93 0 01.567.281.93.93 0 011.25 0h8.036v5.464a.93.93 0 00.281.683.93.93 0 00.683.282zm1.607 7.392v-.642a.317.317 0 00-.09-.232.313.313 0 00-.231-.09H4.464c-.093 0-.17.03-.23.09a.313.313 0 00-.091.232v.642c0 .094.03.171.09.232.06.06.138.09.231.09h7.072a.31.31 0 00.321-.322zm0-2.571v-.643a.31.31 0 00-.09-.23.312.312 0 00-.231-.091H4.464c-.093 0-.17.03-.23.09a.313.313 0 00-.091.231v.643c0 .094.03.17.09.231.06.06.138.09.231.09h7.072a.31.31 0 00.321-.321zm0-2.571v-.643a.313.313 0 00-.09-.231.313.313 0 00-.231-.09H4.464c-.093 0-.17.03-.23.09a.313.313 0 00-.091.23v.644c0 .093.03.17.09.23s.138.09.231.09h7.072a.31.31 0 00.321-.321z" fill="#fff"/></svg>