<svg width="18" height="18" fill="none" xmlns="http://www.w3.org/2000/svg"><path d="M3.375 2.813a2.813 2.813 0 015.625 0 2.813 2.813 0 015.625 0v.006c0 .079 0 .304-.043.556h2.293A1.125 1.125 0 0118 4.5v1.125a1.125 1.125 0 01-1.125 1.125H1.125A1.125 1.125 0 010 5.625V4.5a1.125 1.125 0 011.125-1.125h2.293a3.34 3.34 0 01-.043-.556v-.006zm1.202.562h3.298v-.563a1.688 1.688 0 00-3.375 0c0 .096.002.309.05.484a.587.587 0 00.027.079zm5.548 0h3.299a.64.64 0 00.025-.079c.049-.175.051-.388.051-.483a1.687 1.687 0 10-3.375 0v.562zm6.75 4.5v8.438A1.687 1.687 0 0115.187 18h-5.062V7.875h6.75zM2.812 18a1.687 1.687 0 01-1.687-1.688V7.876h6.75V18H2.812z" fill="#3D4A39"/></svg>