<svg width="6" height="8" viewBox="0 0 19 26" fill="none" xmlns="http://www.w3.org/2000/svg"><path d="M6.317 3.15l.031.073a6.657 6.657 0 00-.23.1C4.176 5.042 2.722 7.357 1.8 9.807a22.532 22.532 0 00-.723 2.256c.078.863.276 1.676.594 2.438.422 1.011 1.057 1.94 1.902 2.783v.001c.839.839 1.767 1.466 2.782 1.883 1.015.416 2.124.623 3.327.623a8.76 8.76 0 002.678-.4c-4.279-2.05-7.614-4.22-7.716-8.484 1.273 2.546 2.007 3.948 4.747 5.318.218-.327.45-.72.684-1.028 1.176-1.562 1.423-.96 4.061-1.539 2.217-.485 2.72-1.468 2.879-3.942C15 7.995 15.58 9.184 14.338 6.38c-.763-1.722-1.405-1.863-3.43-2.295l.206-3.404c-1.825.431-3.428 1.305-4.797 2.47V3.15z" fill="#DDD5C1"/><path d="M13.22 19.797c-1.095.448-2.274.672-3.537.672-1.288 0-2.483-.225-3.585-.676-1.1-.45-2.101-1.127-3.004-2.03v.002c-.91-.906-1.592-1.906-2.05-3.003a8.616 8.616 0 01-.336-.963c-.533 3.29-.026 6.087.69 9.45a13.902 13.902 0 002.666 1.455c1.723.707 3.596 1.063 5.618 1.068v-.001c2.017 0 3.885-.352 5.603-1.056a14.134 14.134 0 003.665-2.217c-1.937-.997-3.903-1.85-5.731-2.7v-.001z" fill="#AE7B3C"/></svg>