<svg width="90" height="90" fill="none" xmlns="http://www.w3.org/2000/svg"><g filter="url(#filter0_d_221_72)"><path d="M74.674 63.11l-7.92-38.28a1.322 1.322 0 00-1.294-1.05H24.54c-.627 0-1.168.442-1.294 1.05l-7.92 38.28c-.079.389.02.791.271 1.102.25.31.627.488 1.023.488h56.76a1.323 1.323 0 001.294-1.59zm-6.878-20.19H46.32v-16.5h18.064l3.412 16.5zm-42.18-16.5H43.68v16.5H22.204l3.412-16.5zm-3.934 19.015c.165.079.35.125.548.125h21.45v16.5H18.244l3.438-16.625zM46.32 62.06v-16.5h21.45c.198 0 .383-.046.548-.125l3.438 16.625H46.32zm3.3-49.5a3.3 3.3 0 013.3 3.3c0 .726.594 1.32 1.32 1.32.726 0 1.32-.594 1.32-1.32a3.3 3.3 0 013.3-3.3c.726 0 1.32-.594 1.32-1.32 0-.726-.594-1.32-1.32-1.32a3.301 3.301 0 01-3.3-3.3c0-.726-.594-1.32-1.32-1.32-.726 0-1.32.594-1.32 1.32a3.3 3.3 0 01-3.3 3.3c-.726 0-1.32.594-1.32 1.32 0 .726.594 1.32 1.32 1.32zm4.62-2.218c.264.33.568.627.898.898-.33.264-.627.568-.898.898a6.074 6.074 0 00-.898-.898c.33-.264.634-.568.898-.898zM31.14 15.2a3.3 3.3 0 013.3 3.3c0 .726.594 1.32 1.32 1.32.726 0 1.32-.594 1.32-1.32a3.3 3.3 0 013.3-3.3c.726 0 1.32-.594 1.32-1.32 0-.726-.594-1.32-1.32-1.32a3.301 3.301 0 01-3.3-3.3c0-.726-.594-1.32-1.32-1.32-.726 0-1.32.594-1.32 1.32a3.3 3.3 0 01-3.3 3.3c-.726 0-1.32.594-1.32 1.32 0 .726.594 1.32 1.32 1.32zm4.62-2.218c.264.33.568.627.898.898-.33.264-.627.568-.898.898a6.074 6.074 0 00-.898-.898c.33-.264.634-.568.898-.898z" fill="#fff"/></g><defs><filter id="filter0_d_221_72" x="-3" y="-3" width="96" height="96" filterUnits="userSpaceOnUse" color-interpolation-filters="sRGB"><feFlood flood-opacity="0" result="BackgroundImageFix"/><feColorMatrix in="SourceAlpha" values="0 0 0 0 0 0 0 0 0 0 0 0 0 0 0 0 0 0 127 0" result="hardAlpha"/><feOffset dy="10"/><feGaussianBlur stdDeviation="7.5"/><feComposite in2="hardAlpha" operator="out"/><feColorMatrix values="0 0 0 0 0 0 0 0 0 0 0 0 0 0 0 0 0 0 0.25 0"/><feBlend in2="BackgroundImageFix" result="effect1_dropShadow_221_72"/><feBlend in="SourceGraphic" in2="effect1_dropShadow_221_72" result="shape"/></filter></defs></svg>