<svg width="84" height="96" fill="none" xmlns="http://www.w3.org/2000/svg"><g clip-path="url(#clip0_221_68)" filter="url(#filter0_d_221_68)"><path d="M61.45 16.674A11.465 11.465 0 0050.6 5a9.92 9.92 0 00-5.548 1.691A14.404 14.404 0 0038.308 5a15.91 15.91 0 00-14.726 11.344 11.78 11.78 0 00-8.395 11.694 11.502 11.502 0 0010.849 12.024h6.25l-7.343 13.345a.773.773 0 00-.103.371.352.352 0 00-.02.145l-.846 8.456v.082l-.702 6.992a1.003 1.003 0 00.537.99 1.077 1.077 0 001.134-.082l5.569-4.352 6.682-5.239a.805.805 0 00.392-.392l11.2-20.316h9.178a11.503 11.503 0 0010.848-12.024 11.977 11.977 0 00-7.363-11.364zM34.656 40.063h4.703L30.862 55.49l-3.61-1.98 7.405-13.447zm-9.095 27.183l.35-3.597a5.492 5.492 0 012.488 1.376l-2.838 2.221zm4.475-3.506l-.02.017a7.526 7.526 0 00-3.898-2.154v-.029l.598-6.022 4 2.227c.021 0 .021.021.042.021.02 0 .02.02.041.02l4.002 2.208-4.765 3.712zm6.25-5.26h-.021l-3.589-2 9.034-16.417h4.703L36.286 58.48zM57.964 38H26.036a9.444 9.444 0 01-8.786-9.962 9.671 9.671 0 017.177-9.776h.041a8.157 8.157 0 017.529 8.6 1.031 1.031 0 002.062 0 10.37 10.37 0 00-8.27-10.539 13.74 13.74 0 0112.519-9.26 12.209 12.209 0 016.167 1.67c.02.02.041.02.062.041a8.855 8.855 0 013.691 5.982c.021.103.021.185.042.288a1.032 1.032 0 001.01.908h.124a1.054 1.054 0 00.908-1.155.124.124 0 00-.021-.083 10.768 10.768 0 00-3.424-6.703 7.904 7.904 0 013.733-.948 9.348 9.348 0 018.745 9.405 8.25 8.25 0 00-3.361 1.134 8.335 8.335 0 00-1.774 1.3 10.647 10.647 0 00-2.145 2.845 1.005 1.005 0 00.454 1.382.94.94 0 00.453.124 1.03 1.03 0 00.928-.557 7.963 7.963 0 011.815-2.351 6.34 6.34 0 011.712-1.176 6.542 6.542 0 012.785-.7c.02-.021.02-.021.04 0a9.766 9.766 0 016.498 9.57A9.444 9.444 0 0157.964 38zm-1.135-11.22a1.031 1.031 0 00-.185-1.01.898.898 0 00-.454-.31 1.064 1.064 0 00-1.32.66 9.32 9.32 0 00-.454 3.65.02.02 0 01-.006.015.02.02 0 01-.015.006c-.02.041-.02.062-.04.083l.061-.041a8.16 8.16 0 00.97 3.465 1.031 1.031 0 00.907.556.957.957 0 00.474-.123 1.01 1.01 0 00.433-1.382 7.132 7.132 0 01-.37-5.569zm-26.771 4.249a7.012 7.012 0 01-5.548-.557 1.03 1.03 0 10-.97 1.815 9.28 9.28 0 004.435 1.134c.924 0 1.843-.145 2.722-.433a1.015 1.015 0 00.66-1.3 1.031 1.031 0 00-1.3-.66zm17.717-1.98a9.016 9.016 0 00-1.63-1.3 10.725 10.725 0 00-1.938-.99 9.347 9.347 0 00-1.94-.536 5.126 5.126 0 00-1.113-.124.998.998 0 00-.99.021h-.02a.227.227 0 00-.166 0 8.615 8.615 0 00-3.3.928 1.032 1.032 0 00.929 1.836c.34-.183.7-.329 1.072-.433h.02a6.807 6.807 0 012.496-.29 7.44 7.44 0 012.27.516c.595.23 1.163.527 1.69.887.58.392 1.113.848 1.588 1.362a9.443 9.443 0 011.506 2.165 1.032 1.032 0 00.928.578 1.084 1.084 0 00.788-.373 1.016 1.016 0 00.12-1.133 10.928 10.928 0 00-2.31-3.114zm-6.6-15.221a1.031 1.031 0 00-.949-1.816 7.13 7.13 0 01-5.569.372 1.03 1.03 0 00-1.32.64 1.073 1.073 0 00.66 1.32 9.842 9.842 0 003.053.494 8.716 8.716 0 004.125-1.01z" fill="#fff"/></g><defs><clipPath id="clip0_221_68"><path fill="#fff" transform="translate(9 5)" d="M0 0h66v66H0z"/></clipPath><filter id="filter0_d_221_68" x="-6" y="0" width="96" height="96" filterUnits="userSpaceOnUse" color-interpolation-filters="sRGB"><feFlood flood-opacity="0" result="BackgroundImageFix"/><feColorMatrix in="SourceAlpha" values="0 0 0 0 0 0 0 0 0 0 0 0 0 0 0 0 0 0 127 0" result="hardAlpha"/><feOffset dy="10"/><feGaussianBlur stdDeviation="7.5"/><feComposite in2="hardAlpha" operator="out"/><feColorMatrix values="0 0 0 0 0 0 0 0 0 0 0 0 0 0 0 0 0 0 0.25 0"/><feBlend in2="BackgroundImageFix" result="effect1_dropShadow_221_68"/><feBlend in="SourceGraphic" in2="effect1_dropShadow_221_68" result="shape"/></filter></defs></svg>