<?xml version="1.0" encoding="utf-8"?><svg viewBox="0 0 24 24" xmlns="http://www.w3.org/2000/svg" xmlns:xlink="http://www.w3.org/1999/xlink"><style>:root>svg{display:none}:root>svg:target{display:block}</style><svg viewBox="0 0 21 16" id="arrow-next" xmlns="http://www.w3.org/2000/svg"><path d="M20.707 8.707a1 1 0 000-1.414L14.343.929a1 1 0 10-1.414 1.414L18.586 8l-5.657 5.657a1 1 0 001.414 1.414l6.364-6.364zM0 9h20V7H0v2z"/></svg><svg viewBox="0 0 21 16" id="arrow-prev" xmlns="http://www.w3.org/2000/svg"><path d="M.293 7.293a1 1 0 000 1.414l6.364 6.364a1 1 0 001.414-1.414L2.414 8l5.657-5.657A1 1 0 006.657.93L.293 7.293zM21 7H1v2h20V7z"/></svg><svg viewBox="0 0 10 21" id="facebook" xmlns="http://www.w3.org/2000/svg"><path d="M2.553 20.575V10.92H0V7.444h2.553V4.475C2.553 2.142 4.06 0 7.535 0c1.407 0 2.447.135 2.447.135L9.9 3.38s-1.06-.01-2.218-.01c-1.253 0-1.454.577-1.454 1.535v2.538H10l-.164 3.476H6.228v9.655H2.553z"/></svg><svg viewBox="0 0 24 24" id="insta" xmlns="http://www.w3.org/2000/svg"><path d="M20.947 8.305a6.526 6.526 0 00-.42-2.216 4.609 4.609 0 00-2.632-2.633 6.606 6.606 0 00-2.186-.42c-.962-.043-1.267-.055-3.71-.055-2.441 0-2.754 0-3.71.055a6.606 6.606 0 00-2.184.42 4.607 4.607 0 00-2.633 2.633 6.554 6.554 0 00-.419 2.185c-.043.963-.056 1.268-.056 3.71s0 2.754.056 3.71c.015.748.156 1.486.419 2.187a4.61 4.61 0 002.634 2.632 6.583 6.583 0 002.185.45c.963.043 1.268.056 3.71.056s2.755 0 3.71-.056a6.59 6.59 0 002.186-.419 4.614 4.614 0 002.633-2.633c.263-.7.404-1.438.419-2.187.043-.962.056-1.267.056-3.71-.002-2.442-.002-2.752-.058-3.709zm-8.953 8.297a4.622 4.622 0 01-4.623-4.623 4.622 4.622 0 114.623 4.623zM16.8 8.263a1.076 1.076 0 01-.413-2.073 1.077 1.077 0 11.413 2.073z"/><path d="M11.994 14.982a3.003 3.003 0 100-6.006 3.003 3.003 0 000 6.006z"/></svg></svg>